# xmcd CD database file
#
# Track frame offsets:
#	150
#	14125
#	25413
#	39803
#	52888
#	64883
#	73580
#	87180
#	98885
#	111533
#	125668
#	137585
#
# Disc length: 2005 seconds
#
# Revision: 2
# Processed by: cddbd v1.5PL3 Copyright (c) Steve Scherf et al.
# Submitted via: CDex 1.51
#
DISCID=a807d30c
DTITLE=Moon Mullican - Sings His All-Time Hits
DYEAR=1988
DGENRE=Country
TTITLE0=I'll Sail My Ship Alone
TTITLE1=Honolulu Rock-A Roll-A
TTITLE2=The Leaves Mustn't Fall
TTITLE3=Mona Lisa
TTITLE4=Sugar Beet
TTITLE5=New Jole Blon
TTITLE6=Sweeter Than The Flowers
TTITLE7=Pipeliner's Blues
TTITLE8=I Was Sorta Wondering
TTITLE9=Cherokee Boogie
TTITLE10=You Don't Have To Be A Baby To Cry
TTITLE11=Foggy River
EXTD=YEAR: 1988
EXTT0=
EXTT1=
EXTT2=
EXTT3=
EXTT4=
EXTT5=
EXTT6=
EXTT7=
EXTT8=
EXTT9=
EXTT10=
EXTT11=
PLAYORDER=
